# AST/ASF file generated using VICON BodyLanguage
# -----------------------------------------------
:version 1.10
:name VICON
:units
  mass 1.0
  length 0.45
  angle deg
:documentation
   .ast/.asf automatically generated from VICON data using
   VICON BodyBuilder and BodyLanguage model FoxedUp or BRILLIANT.MOD
:root
   order TX TY TZ RX RY RZ
   axis XYZ
   position 0 0 0  
   orientation 0 0 0 
:bonedata
  begin
     id 1 
     name lhipjoint
     direction 0.610259 -0.730986 0.305356 
     length 2.50941 
     axis 0 0 0  XYZ
  end
  begin
     id 2 
     name lfemur
     direction 0.34202 -0.939693 0  
     length 7.48822  
     axis 0 0 20  XYZ
    dof rx ry rz
    limits (-160.0 20.0)
           (-70.0 70.0)
           (-60.0 70.0)
  end
  begin
     id 3 
     name ltibia
     direction 0.34202 -0.939693 0   
     length 7.60141   
     axis 0 0 20   XYZ
    dof rx
    limits (-10.0 170.0)
  end
  begin
     id 4 
     name lfoot
     direction 0.0673488 -0.185039 0.980421   
     length 2.04049   
     axis -90 7.62852e-016 20   XYZ
    dof rx rz
    limits (-45.0 90.0)
           (-70.0 20.0)
  end
  begin
     id 5 
     name ltoes
     direction 1.5356e-011 -4.21729e-011 1   
     length 1.02897   
     axis -90 7.62852e-016 20   XYZ
    dof rx
    limits (-90.0 20.0)
  end
  begin
     id 6 
     name rhipjoint
     direction -0.57612 -0.754205 0.315056   
     length 2.43216  
     axis 0 0 0  XYZ 
  end
  begin
     id 7 
     name rfemur
     direction -0.34202 -0.939693 0   
     length 7.42799   
     axis 0 0 -20   XYZ
    dof rx ry rz
    limits (-160.0 20.0)
           (-70.0 70.0)
           (-70.0 60.0)
  end
  begin
     id 8 
     name rtibia
     direction -0.34202 -0.939693 0   
     length 7.69484   
     axis 0 0 -20   XYZ
    dof rx
    limits (-10.0 170.0)
 end
 begin
     id 9 
     name rfoot
     direction -0.111837 -0.30727 0.945028   
     length 2.15769  
     axis -90 -7.62852e-016 -20   XYZ
    dof rx rz
    limits (-45.0 90.0)
           (-20.0 70.0)
  end
  begin
     id 10 
     name rtoes
     direction -1.53539e-011 -4.21878e-011 1   
     length 1.07391   
     axis -90 -7.62852e-016 -20   XYZ
    dof rx
    limits (-90.0 20.0)
  end
  begin
     id 11 
     name lowerback
     direction 0.00552624 0.990109 -0.140195   
     length 2.12403   
     axis 0 0 0   XYZ
    dof rx ry rz
    limits (-20.0 45.0)
           (-30.0 30.0)
           (-30.0 30.0)
  end
  begin
     id 12 
     name upperback
     direction 0.00361898 0.999976 -0.00584723   
     length 2.13232   
     axis 0 0 0   XYZ
    dof rx ry rz
    limits (-20.0 45.0)
           (-30.0 30.0)
           (-30.0 30.0)
  end
  begin
     id 13 
     name thorax
     direction -0.000331275 0.998253 0.0590847   
     length 2.17688   
     axis 0 0 0   XYZ
    dof rx ry rz
    limits (-20.0 45.0)
           (-30.0 30.0)
           (-30.0 30.0)
  end
  begin
     id 14 
     name lowerneck
     direction -0.0561561 0.979832 0.19177   
     length 1.64159   
     axis 0 0 0   XYZ
    dof rx ry rz
    limits (-20.0 45.0)
           (-30.0 30.0)
           (-30.0 30.0)
  end
  begin
     id 15 
     name upperneck
     direction 0.0827153 0.979385 -0.184293   
     length 1.68939   
     axis 0 0 0   XYZ
    dof rx ry rz
    limits (-20.0 45.0)
           (-30.0 30.0)
           (-30.0 30.0)
  end
  begin
     id 16
     name head
     direction 0.0278583 0.995936 -0.0856488  
     length 1.70207  
     axis 0 0 0   XYZ
    dof rx ry rz
    limits (-20.0 45.0)
           (-30.0 30.0)
           (-30.0 30.0)
  end
  begin
     id 17 
     name lclavicle
     direction 0.950993 0.301131 -0.0702275  
     length 3.41652  
     axis 0 0 0   XYZ
    dof ry rz
    limits (-20.0 10.0)
           (0.0 20.0)
  end
  begin
     id 18 
     name lhumerus
     direction 1 -4.48981e-011 -3.9662e-029   
     length 5.32955   
     axis 180 -30 -90   XYZ
    dof rx ry rz
    limits (-60.0 90.0)
           (-90.0 90.0)
           (-90.0 90.0)
  end
  begin
     id 19
     name lradius
     direction 1 -4.48925e-011 -9.0549e-027   
     length 3.69232   
     axis 180 -30 -90   XYZ
    dof rx
    limits (-10.0 170.0)
  end
  begin
     id 20
     name lwrist
     direction 1 -4.49007e-011 -1.49005e-026   
     length 1.84616   
     axis 9.0955e-015 90 90   XYZ
    dof ry
    limits (-180.0 0.0)
 end
  begin
     id 21 
     name lhand
     direction 1 -4.49016e-011 -2.98023e-026   
     length 0.536598   
     axis 1.90115e-014 90 90   XYZ
    dof rx rz
    limits (-90.0 90.0)
           (-45.0 45.0)
  end
  begin
     id 22 
     name lfingers
     direction 1 -4.48924e-011 -5.9578e-026   
     length 0.432619   
     axis 3.80223e-014 90 90   XYZ
    dof rx
    limits (0.0 90.0)
  end
  begin
     id 23
     name lthumb
     direction 0.707107 -6.34947e-011 0.707107   
     length 0.621157   
     axis -90 45 -3.84942e-014   XYZ
    dof rx rz
    limits (-45.0 45.0)
           (-45.0 45.0)
  end
  begin
     id 24 
     name rclavicle
     direction -0.955495 0.276497 -0.102848   
     length 3.36357  
     axis 0 0 0   XYZ 
    dof ry rz
    limits (-10.0 20.0)
           (-20.0 0.0)
  end
  begin
     id 25 
     name rhumerus
     direction -1 -4.48961e-011 3.30983e-027  
     length 5.23431   
     axis 180 30 90   XYZ
    dof rx ry rz
    limits (-90.0 60.0)
           (-90.0 90.0)
           (-90.0 90.0)
  end
  begin
     id 26 
     name rradius
     direction -1 -4.48965e-011 -6.63263e-027   
     length 3.55301   
     axis 180 30 90   XYZ
    dof rx
    limits (-10.0 170.0)
  end
  begin
     id 27 
     name rwrist
     direction -1 -4.48942e-011 -1.48958e-026   
     length 1.77651   
     axis 9.0955e-015 -90 -90   XYZ
    dof ry
    limits (-180.0 0.0)
  end
  begin
     id 28
     name rhand
     direction -1 -4.48977e-011 -2.97966e-026   
     length 0.772522   
     axis 1.90115e-014 -90 -90   XYZ
    dof rx rz
    limits (-90.0 90.0)
           (-45.0 45.0)
  end
  begin
     id 29
     name rfingers
     direction -1 -4.49135e-011 -5.96389e-026   
     length 0.622827   
     axis 3.80223e-014 -90 -90   XYZ
    dof rx
    limits (0.0 90.0)
  end
  begin
     id 30
     name rthumb
     direction -0.707107 -6.34969e-011 0.707107   
     length 0.894259   
     axis -90 -45 3.84942e-014   XYZ
    dof rx rz
    limits (-45.0 45.0)
           (-45.0 45.0)
  end
:hierarchy
  begin
    root lhipjoint rhipjoint lowerback
    lhipjoint lfemur
    lfemur ltibia
    ltibia lfoot
    lfoot ltoes
    rhipjoint rfemur
    rfemur rtibia
    rtibia rfoot
    rfoot rtoes
    lowerback upperback
    upperback thorax
    thorax lowerneck lclavicle rclavicle
    lowerneck upperneck
    upperneck head
    lclavicle lhumerus
    lhumerus lradius
    lradius lwrist
    lwrist lhand lthumb
    lhand lfingers
    rclavicle rhumerus
    rhumerus rradius
    rradius rwrist
    rwrist rhand rthumb
    rhand rfingers
  end

#!OML:ASF F:\VICON\USERDATA\INSTALL\rory3\rory3.ASF
:FULLY-SPECIFIED
:DEGREES
1
root -12.6942 17.6381 -16.0845 -177.947 87.7226 -175.825
lowerback 12.825 1.04592 -1.09972
upperback 0.672461 1.2973 0.373262
thorax -6.52272 0.690747 0.776338
lowerneck -16.7687 -9.47404 -13.6865
upperneck 29.8298 -12.6253 11.14
head 14.8286 -5.36615 4.61904
rclavicle -7.84268e-015 7.45443e-016
rhumerus -34.7409 -14.978 -76.1336
rradius 31.9798
rwrist 7.2021
rhand -14.8804 6.81839
rfingers 7.12502
rthumb 11.2801 -22.8583
lclavicle -7.84268e-015 7.45443e-016
lhumerus -37.952 7.58978 78.6593
lradius 37.0565
lwrist -1.06206
lhand -16.8233 26.9385
lfingers 7.12502
lthumb 9.40586 56.7086
rfemur -6.63992 2.48855 19.1797
rtibia 32.6323
rfoot -18.2404 -8.41749
rtoes 1.35566
lfemur -13.7903 -1.35951 -17.2612
ltibia 39.8427
lfoot -21.7386 -10.7612
ltoes -29.5144
2
root -12.6855 17.6189 -16.025 -181.537 87.6479 -179.434
lowerback 12.7394 0.983466 -1.12061
upperback 0.662528 1.20896 0.333419
thorax -6.48275 0.64725 0.763545
lowerneck -16.7635 -9.47548 -13.6336
upperneck 29.8859 -12.5944 10.9792
head 14.8281 -5.36704 4.55005
rclavicle -6.11884e-015 -1.98785e-015
rhumerus -34.7941 -15.0812 -75.9775
rradius 32.0001
rwrist 6.81108
rhand -15.0942 6.41469
rfingers 7.12502
rthumb 11.0738 -23.2732
lclavicle -6.11884e-015 -1.98785e-015
lhumerus -38.1462 7.34075 78.7509
lradius 37.1356
lwrist -1.13989
lhand -16.3178 26.3684
lfingers 7.12502
lthumb 9.89359 56.116
rfemur -6.85335 2.50582 19.2679
rtibia 33.1333
rfoot -18.4526 -8.58181
rtoes 2.02063
lfemur -13.715 -0.66971 -18.2169
ltibia 39.8093
lfoot -20.9435 -14.2634
ltoes -24.1811
3
root -12.6774 17.5968 -15.964 -181.949 87.5802 -179.788
lowerback 12.7724 0.929603 -1.05783
upperback 0.673894 1.14735 0.343088
thorax -6.48665 0.615583 0.749092
lowerneck -16.7551 -9.36903 -13.5642
upperneck 29.9019 -12.4465 10.9481
head 14.7994 -5.29955 4.55755
rclavicle -1.46293e-015 3.97569e-016
rhumerus -34.8044 -15.1598 -75.7987
rradius 31.8916
rwrist 6.55009
rhand -15.3597 6.13213
rfingers 7.12502
rthumb 10.8178 -23.5693
lclavicle -1.46293e-015 3.97569e-016
lhumerus -38.2521 7.45184 78.7207
lradius 37.1254
lwrist -1.50629
lhand -15.7948 25.9148
lfingers 7.12502
lthumb 10.3981 55.6377
rfemur -6.92613 2.43161 19.4917
rtibia 33.4884
rfoot -18.645 -8.62929
rtoes 1.93049
lfemur -13.6396 0.23446 -19.1039
ltibia 39.734
lfoot -21.391 -15.9268
ltoes -25.3298
4
root -12.6609 17.575 -15.908 -179.978 87.6183 -177.724
lowerback 12.6971 0.929295 -0.843905
upperback 0.741124 1.18095 0.359192
thorax -6.36984 0.626007 0.640835
lowerneck -16.656 -9.25345 -13.5791
upperneck 29.7793 -12.3227 11.1064
head 14.7161 -5.23283 4.65184
rclavicle -4.83295e-015 -2.73329e-015
rhumerus -34.8061 -15.453 -75.5431
rradius 31.7129
rwrist 6.35765
rhand -15.4199 6.27566
rfingers 7.12502
rthumb 10.7598 -23.4288
lclavicle -4.83295e-015 -2.73329e-015
lhumerus -38.2101 7.76961 78.7074
lradius 36.9554
lwrist -2.0723
lhand -15.6078 25.5514
lfingers 7.12502
lthumb 10.5785 55.2652
rfemur -6.9488 2.10099 19.7297
rtibia 33.7648
rfoot -18.8555 -8.32596
rtoes 1.76776
lfemur -13.4552 0.926036 -19.8201
ltibia 39.6736
lfoot -20.732 -18.2153
ltoes -22.37
5
root -12.6354 17.5537 -15.8565 -175.187 87.7567 -172.757
lowerback 12.5988 0.975406 -0.518141
upperback 0.837244 1.29511 0.419433
thorax -6.20933 0.673931 0.502323
lowerneck -16.5433 -9.24384 -13.7347
upperneck 29.7077 -12.3262 11.2887
head 14.6893 -5.23296 4.75578
rclavicle 6.70898e-016 1.93815e-015
rhumerus -34.954 -15.7877 -75.1408
rradius 31.7209
rwrist 6.27371
rhand -15.2333 6.67341
rfingers 7.12502
rthumb 10.9398 -23.0216
lclavicle 6.70898e-016 1.93815e-015
lhumerus -38.1542 8.15418 78.7648
lradius 36.7433
lwrist -2.76624
lhand -15.8245 25.4699
lfingers 7.12502
lthumb 10.3695 55.1942
rfemur -6.80676 1.94484 20.0592
rtibia 33.9173
rfoot -19.0058 -8.10119
rtoes 1.72939
lfemur -13.1328 1.36232 -20.3803
ltibia 39.6183
lfoot -20.0936 -19.802
ltoes -19.7237
6
root -12.614 17.548 -15.8042 -174.182 87.7622 -171.748
lowerback 12.4031 0.98366 -0.401487
upperback 0.878378 1.32654 0.472251
thorax -6.05553 0.686871 0.490213
lowerneck -16.5555 -9.337 -13.9239
upperneck 29.7629 -12.4222 11.3298
head 14.7542 -5.28906 4.78724
rclavicle -8.33032e-015 -7.95139e-016
rhumerus -35.0865 -15.9684 -74.7994
rradius 31.8286
rwrist 6.33482
rhand -15.0889 6.82167
rfingers 7.12502
rthumb 11.079 -22.8659
lclavicle -8.33032e-015 -7.95139e-016
lhumerus -38.1949 8.13031 78.9045
lradius 36.712
lwrist -2.88158
lhand -15.6511 25.5414
lfingers 7.12502
lthumb 10.5367 55.2573
rfemur -6.78753 1.70115 20.2333
rtibia 34.0332
rfoot -19.1475 -7.99784
rtoes 1.38986
lfemur -12.9965 1.67799 -21.081
ltibia 39.5232
lfoot -20.8877 -19.4788
ltoes -24.1555
7
root -12.5998 17.5474 -15.751 -176.033 87.5744 -173.674
lowerback 12.234 0.93848 -0.410248
upperback 0.851854 1.26418 0.468865
thorax -5.98836 0.655984 0.505015
lowerneck -16.5163 -9.40504 -13.8477
upperneck 29.8252 -12.5241 11.2373
head 14.7763 -5.3347 4.71736
rclavicle -1.25296e-014 -3.97569e-016
rhumerus -35.1851 -15.9629 -74.6834
rradius 31.8083
rwrist 6.21593
rhand -15.3375 6.53494
rfingers 7.12502
rthumb 10.8393 -23.1653
lclavicle -1.25296e-014 -3.97569e-016
lhumerus -38.3939 7.46535 79.0971
lradius 36.8968
lwrist -2.44243
lhand -15.484 25.7507
lfingers 7.12502
lthumb 10.6979 55.4584
rfemur -6.86524 1.30422 20.299
rtibia 34.1657
rfoot -19.369 -7.75571
rtoes 1.64639
lfemur -12.8647 1.86494 -21.7932
ltibia 39.3247
lfoot -21.5565 -19.3839
ltoes -26.6645
8
root -12.5851 17.5357 -15.6922 -175.41 87.4047 -173.088
lowerback 12.1006 0.888018 -0.434843
upperback 0.818587 1.19754 0.541019
thorax -5.95022 0.624482 0.607923
lowerneck -16.4013 -9.41865 -13.7732
upperneck 29.8354 -12.5298 11.0887
head 14.7359 -5.35056 4.64368
rclavicle 5.41067e-015 2.48481e-015
rhumerus -35.2849 -15.5343 -74.6385
rradius 31.8206
rwrist 5.74067
rhand -15.5297 6.22325
rfingers 7.12502
rthumb 10.6538 -23.4867
lclavicle 5.41067e-015 2.48481e-015
lhumerus -38.4196 7.40535 79.2109
lradius 36.7201
lwrist -2.74739
lhand -15.1461 25.4473
lfingers 7.12502
lthumb 11.0239 55.1378
rfemur -6.94764 0.971478 20.4851
rtibia 34.331
rfoot -19.5944 -7.11512
rtoes 3.40008
lfemur -12.6786 1.98486 -22.2806
ltibia 39.003
lfoot -21.2632 -20.2096
ltoes -25.3974
9
root -12.5703 17.5238 -15.6327 -172.505 87.2755 -170.224
lowerback 12.0079 0.834648 -0.415556
upperback 0.757102 1.1371 0.681708
thorax -5.965 0.595818 0.755974
lowerneck -16.3281 -9.43886 -13.78
upperneck 29.8836 -12.4964 10.873
head 14.7167 -5.36648 4.5633
rclavicle -1.12189e-014 -2.08724e-015
rhumerus -35.4595 -14.9799 -74.5415
rradius 31.9928
rwrist 5.2783
rhand -15.3998 6.14243
rfingers 7.12502
rthumb 10.7791 -23.561
lclavicle -1.12189e-014 -2.08724e-015
lhumerus -38.4552 7.65298 79.3333
lradius 36.5241
lwrist -3.31101
lhand -14.8557 25.1534
lfingers 7.12502
lthumb 11.304 54.8288
rfemur -7.06322 0.804644 20.8077
rtibia 34.5709
rfoot -19.8823 -6.47165
rtoes 5.49662
lfemur -12.4971 1.83575 -22.6033
ltibia 38.5582
lfoot -20.4306 -20.6763
ltoes -23.0982
10
root -12.5555 17.5158 -15.5717 -168.827 87.0469 -166.513
lowerback 11.9778 0.770523 -0.397557
upperback 0.73136 1.06443 0.838177
thorax -5.97689 0.56195 0.922731
lowerneck -16.3109 -9.50169 -13.7438
upperneck 29.9922 -12.5619 10.7318
head 14.7573 -5.40627 4.48827
rclavicle -1.98785e-015 3.37934e-015
rhumerus -35.6505 -14.7579 -74.3559
rradius 32.1661
rwrist 5.28864
rhand -15.2786 6.23553
rfingers 7.12502
rthumb 10.8961 -23.4618
lclavicle -1.98785e-015 3.37934e-015
lhumerus -38.5527 7.59062 79.4698
lradius 36.5706
lwrist -3.21911
lhand -15.0419 25.2567
lfingers 7.12502
lthumb 11.1243 54.9418
rfemur -7.09519 0.742392 21.2802
rtibia 34.8608
rfoot -20.1298 -6.57143
rtoes 5.90788
lfemur -12.2111 1.48567 -22.7763
ltibia 38.031
lfoot -19.4771 -20.8737
ltoes -20.8156
11
root -12.5376 17.501 -15.5059 -167.741 86.8492 -165.347
lowerback 11.9255 0.745323 -0.571303
upperback 0.759363 1.01559 0.953141
thorax -5.9223 0.54433 1.15057
lowerneck -16.2655 -9.56238 -13.7817
upperneck 30.053 -12.6855 10.843
head 14.8096 -5.44773 4.52079
rclavicle -7.56624e-015 -8.94531e-015
rhumerus -35.6961 -14.5889 -74.2224
rradius 32.1335
rwrist 5.37732
rhand -15.2388 6.4944
rfingers 7.12502
rthumb 10.9344 -23.2009
lclavicle -7.56624e-015 -8.94531e-015
lhumerus -38.5251 7.76508 79.4943
lradius 36.4582
lwrist -3.46138
lhand -15.0902 25.1933
lfingers 7.12502
lthumb 11.0778 54.881
rfemur -7.09563 0.57381 21.6413
rtibia 35.1504
rfoot -20.2235 -6.80366
rtoes 6.12163
lfemur -11.847 1.40786 -22.9693
ltibia 37.4925
lfoot -18.4767 -21.3497
ltoes -16.0675
